G04 #@! TF.FileFunction,Copper,L1,Top,Signal*
%FSLAX46Y46*%
G04 Gerber Fmt 4.6, Leading zero omitted, Abs format (unit mm)*
G04 Created by KiCad (PCBNEW 4.0.6) date 08/10/17 23:44:08*
%MOMM*%
%LPD*%
G01*
G04 APERTURE LIST*
%ADD10C,0.100000*%
%ADD11R,1.250000X1.500000*%
%ADD12R,1.500000X1.250000*%
%ADD13R,1.727200X2.032000*%
%ADD14O,1.727200X2.032000*%
%ADD15R,1.500000X1.300000*%
%ADD16R,0.600000X1.550000*%
%ADD17R,1.500000X0.600000*%
%ADD18R,1.000000X1.250000*%
%ADD19R,1.800000X1.800000*%
%ADD20O,1.800000X1.800000*%
%ADD21R,1.700000X1.700000*%
%ADD22O,1.700000X1.700000*%
%ADD23R,1.727200X1.727200*%
%ADD24O,1.727200X1.727200*%
%ADD25C,3.850000*%
%ADD26C,1.520000*%
%ADD27C,2.540000*%
%ADD28R,1.520000X1.520000*%
%ADD29R,1.600000X0.560000*%
%ADD30R,0.560000X1.600000*%
%ADD31R,2.000000X4.500000*%
%ADD32R,2.000000X1.600000*%
%ADD33R,1.100000X1.100000*%
%ADD34R,3.500000X1.600000*%
%ADD35R,1.600000X3.500000*%
%ADD36C,0.600000*%
%ADD37C,1.000000*%
%ADD38C,0.500000*%
%ADD39C,0.300000*%
%ADD40C,0.250000*%
G04 APERTURE END LIST*
D10*
D11*
X106150000Y-67350000D03*
X106150000Y-69850000D03*
D12*
X132912800Y-89357200D03*
X135412800Y-89357200D03*
D11*
X162280000Y-59310000D03*
X162280000Y-56810000D03*
X113120000Y-70740000D03*
X113120000Y-68240000D03*
X113160000Y-77200000D03*
X113160000Y-79700000D03*
D12*
X98250000Y-67000000D03*
X95750000Y-67000000D03*
D11*
X93000000Y-71750000D03*
X93000000Y-74250000D03*
X93000000Y-65750000D03*
X93000000Y-68250000D03*
X93000000Y-77750000D03*
X93000000Y-80250000D03*
D13*
X103970000Y-58030000D03*
D14*
X106510000Y-58030000D03*
X109050000Y-58030000D03*
D15*
X120070000Y-60770000D03*
X117370000Y-60770000D03*
X135910000Y-62670000D03*
X133210000Y-62670000D03*
X121650000Y-93000000D03*
X124350000Y-93000000D03*
X127650000Y-93000000D03*
X130350000Y-93000000D03*
X133650000Y-93000000D03*
X136350000Y-93000000D03*
D16*
X129905000Y-84300000D03*
X128635000Y-84300000D03*
X127365000Y-84300000D03*
X126095000Y-84300000D03*
X126095000Y-89700000D03*
X127365000Y-89700000D03*
X128635000Y-89700000D03*
X129905000Y-89700000D03*
D17*
X97300000Y-69555000D03*
X97300000Y-70825000D03*
X97300000Y-72095000D03*
X97300000Y-73365000D03*
X97300000Y-74635000D03*
X97300000Y-75905000D03*
X97300000Y-77175000D03*
X97300000Y-78445000D03*
X102700000Y-78445000D03*
X102700000Y-77175000D03*
X102700000Y-75905000D03*
X102700000Y-74635000D03*
X102700000Y-73365000D03*
X102700000Y-72095000D03*
X102700000Y-70825000D03*
X102700000Y-69555000D03*
D12*
X125558400Y-60720800D03*
X128058400Y-60720800D03*
D18*
X172340000Y-62600000D03*
X170340000Y-62600000D03*
D19*
X166470000Y-69680000D03*
D20*
X166470000Y-67140000D03*
X166470000Y-64600000D03*
D18*
X105165400Y-86436200D03*
X103165400Y-86436200D03*
X105216200Y-89230200D03*
X103216200Y-89230200D03*
X113547400Y-83769200D03*
X111547400Y-83769200D03*
X105140000Y-92252800D03*
X103140000Y-92252800D03*
D21*
X117449600Y-89306400D03*
D22*
X117449600Y-91846400D03*
X117449600Y-94386400D03*
D17*
X107942400Y-86360000D03*
X107942400Y-87630000D03*
X107942400Y-88900000D03*
X107942400Y-90170000D03*
X107942400Y-91440000D03*
X107942400Y-92710000D03*
X107942400Y-93980000D03*
X107942400Y-95250000D03*
X113342400Y-95250000D03*
X113342400Y-93980000D03*
X113342400Y-92710000D03*
X113342400Y-91440000D03*
X113342400Y-90170000D03*
X113342400Y-88900000D03*
X113342400Y-87630000D03*
X113342400Y-86360000D03*
D18*
X116297200Y-86106000D03*
X118297200Y-86106000D03*
D23*
X143000000Y-62230000D03*
D24*
X143000000Y-59690000D03*
X145540000Y-62230000D03*
X145540000Y-59690000D03*
X148080000Y-62230000D03*
X148080000Y-59690000D03*
X150620000Y-62230000D03*
X150620000Y-59690000D03*
X153160000Y-62230000D03*
X153160000Y-59690000D03*
D25*
X167890000Y-89520000D03*
X156450000Y-89520000D03*
D26*
X157720000Y-83170000D03*
X158360000Y-80630000D03*
X160270000Y-83170000D03*
X160900000Y-80630000D03*
X162810000Y-83170000D03*
X163440000Y-80630000D03*
X165340000Y-83170000D03*
D27*
X169920000Y-86470000D03*
X154420000Y-86470000D03*
D26*
X159250000Y-75800000D03*
X165090000Y-75800000D03*
X156710000Y-75800000D03*
X167630000Y-75800000D03*
D28*
X165980000Y-80630000D03*
D29*
X125130000Y-68950000D03*
X125130000Y-69750000D03*
X125130000Y-70550000D03*
X125130000Y-71350000D03*
X125130000Y-72150000D03*
X125130000Y-72950000D03*
X125130000Y-73750000D03*
X125130000Y-74550000D03*
X125130000Y-75350000D03*
X125130000Y-76150000D03*
X125130000Y-76950000D03*
D30*
X126980000Y-78800000D03*
X127780000Y-78800000D03*
X128580000Y-78800000D03*
X129380000Y-78800000D03*
X130180000Y-78800000D03*
X130980000Y-78800000D03*
X131780000Y-78800000D03*
X132580000Y-78800000D03*
X133380000Y-78800000D03*
X134180000Y-78800000D03*
X134980000Y-78800000D03*
D29*
X136830000Y-76950000D03*
X136830000Y-76150000D03*
X136830000Y-75350000D03*
X136830000Y-74550000D03*
X136830000Y-73750000D03*
X136830000Y-72950000D03*
X136830000Y-72150000D03*
X136830000Y-71350000D03*
X136830000Y-70550000D03*
X136830000Y-69750000D03*
X136830000Y-68950000D03*
D30*
X134980000Y-67100000D03*
X134180000Y-67100000D03*
X133380000Y-67100000D03*
X132580000Y-67100000D03*
X131780000Y-67100000D03*
X130980000Y-67100000D03*
X130180000Y-67100000D03*
X129380000Y-67100000D03*
X128580000Y-67100000D03*
X127780000Y-67100000D03*
X126980000Y-67100000D03*
D31*
X118210000Y-69760000D03*
X118210000Y-78260000D03*
D32*
X116660000Y-63900000D03*
X120660000Y-63900000D03*
D33*
X160090000Y-69960000D03*
X157290000Y-69960000D03*
D34*
X171650000Y-70030000D03*
X177050000Y-70030000D03*
D35*
X167300000Y-59030000D03*
X167300000Y-53630000D03*
D33*
X135060000Y-58340000D03*
X132260000Y-58340000D03*
D32*
X149500000Y-70980000D03*
X144100000Y-70980000D03*
D36*
X111000000Y-80000000D03*
X113000000Y-66000000D03*
X177000000Y-66000000D03*
X162000000Y-54000000D03*
X130000000Y-61000000D03*
X122000000Y-63000000D03*
X152290000Y-70980000D03*
X139500000Y-73000000D03*
X132000000Y-81000000D03*
X123000000Y-73000000D03*
X131000000Y-65000000D03*
X101447600Y-92303600D03*
X114909600Y-87630000D03*
X119786400Y-86080600D03*
X138500000Y-93000000D03*
X124500000Y-89500000D03*
X137000000Y-89500000D03*
X95000000Y-80500000D03*
X101000000Y-70500000D03*
X122760000Y-76200000D03*
X109040000Y-75360000D03*
X122910000Y-77500000D03*
X108520000Y-77140000D03*
X129286000Y-86512400D03*
X111633000Y-91338400D03*
X129895600Y-82143600D03*
X125145800Y-82143600D03*
X110718600Y-92633800D03*
X124891800Y-84302600D03*
X150070000Y-95670000D03*
X150240000Y-94500000D03*
X161350000Y-73230000D03*
X123330000Y-63890000D03*
X127450000Y-69010000D03*
X139480000Y-66220000D03*
X149540000Y-64050000D03*
X128710000Y-69820000D03*
X127450000Y-70630000D03*
D37*
X113160000Y-79700000D02*
X111300000Y-79700000D01*
X111300000Y-79700000D02*
X111000000Y-80000000D01*
X113120000Y-68240000D02*
X113120000Y-66120000D01*
X113120000Y-66120000D02*
X113000000Y-66000000D01*
X177050000Y-70030000D02*
X177050000Y-66050000D01*
X177050000Y-66050000D02*
X177000000Y-66000000D01*
X162280000Y-56810000D02*
X162280000Y-54280000D01*
X162280000Y-54280000D02*
X162000000Y-54000000D01*
X128058400Y-60720800D02*
X129720800Y-60720800D01*
X129720800Y-60720800D02*
X130000000Y-61000000D01*
X120660000Y-63900000D02*
X121100000Y-63900000D01*
X121100000Y-63900000D02*
X122000000Y-63000000D01*
X170340000Y-62600000D02*
X170340000Y-55000000D01*
X168970000Y-53630000D02*
X167300000Y-53630000D01*
X170340000Y-55000000D02*
X168970000Y-53630000D01*
X167300000Y-53630000D02*
X167340000Y-53630000D01*
X167340000Y-53630000D02*
X167400000Y-53570000D01*
X166470000Y-67140000D02*
X168390000Y-67140000D01*
X170340000Y-65190000D02*
X170340000Y-62600000D01*
X168390000Y-67140000D02*
X170340000Y-65190000D01*
D38*
X149500000Y-70980000D02*
X152290000Y-70980000D01*
X136850000Y-73000000D02*
X139500000Y-73000000D01*
X131800000Y-78850000D02*
X131800000Y-80800000D01*
X131800000Y-80800000D02*
X132000000Y-81000000D01*
X125150000Y-73000000D02*
X123000000Y-73000000D01*
X131000000Y-67150000D02*
X131000000Y-65000000D01*
X102700000Y-70825000D02*
X105175000Y-70825000D01*
X105175000Y-70825000D02*
X106150000Y-69850000D01*
X103140000Y-92252800D02*
X101498400Y-92252800D01*
X101498400Y-92252800D02*
X101447600Y-92303600D01*
X113342400Y-87630000D02*
X114909600Y-87630000D01*
X118297200Y-86106000D02*
X119761000Y-86106000D01*
X119761000Y-86106000D02*
X119786400Y-86080600D01*
D37*
X170340000Y-62600000D02*
X170340000Y-62965000D01*
D38*
X136350000Y-93000000D02*
X138500000Y-93000000D01*
X126095000Y-89700000D02*
X124700000Y-89700000D01*
X124700000Y-89700000D02*
X124500000Y-89500000D01*
X135412800Y-89357200D02*
X136857200Y-89357200D01*
X136857200Y-89357200D02*
X137000000Y-89500000D01*
X93000000Y-80250000D02*
X94750000Y-80250000D01*
X94750000Y-80250000D02*
X95000000Y-80500000D01*
X102700000Y-70825000D02*
X101325000Y-70825000D01*
X101325000Y-70825000D02*
X101000000Y-70500000D01*
D37*
X166470000Y-64600000D02*
X166470000Y-59860000D01*
X166470000Y-59860000D02*
X167300000Y-59030000D01*
X167300000Y-59030000D02*
X162560000Y-59030000D01*
X162560000Y-59030000D02*
X162280000Y-59310000D01*
X162280000Y-59310000D02*
X161190000Y-59310000D01*
X158920000Y-54760000D02*
X142470000Y-54760000D01*
X160020000Y-55860000D02*
X158920000Y-54760000D01*
X160020000Y-58140000D02*
X160020000Y-55860000D01*
X161190000Y-59310000D02*
X160020000Y-58140000D01*
X162450000Y-59140000D02*
X162280000Y-59310000D01*
X120070000Y-60770000D02*
X125509200Y-60770000D01*
X125509200Y-60770000D02*
X125558400Y-60720800D01*
D38*
X125509200Y-60770000D02*
X125558400Y-60720800D01*
X131521200Y-63855600D02*
X125825600Y-63855600D01*
X131521200Y-63855600D02*
X131800000Y-64134400D01*
X131800000Y-67150000D02*
X131800000Y-64134400D01*
X125558400Y-63588400D02*
X125558400Y-60720800D01*
X125825600Y-63855600D02*
X125558400Y-63588400D01*
D37*
X120070000Y-60770000D02*
X120070000Y-54905200D01*
X120210000Y-54765200D02*
X120243600Y-54731600D01*
X120070000Y-54905200D02*
X120210000Y-54765200D01*
X143000000Y-55290000D02*
X142470000Y-54760000D01*
X143000000Y-59690000D02*
X143000000Y-55290000D01*
X142470000Y-54760000D02*
X142441600Y-54731600D01*
X133502400Y-54731600D02*
X132298400Y-54731600D01*
X142441600Y-54731600D02*
X133502400Y-54731600D01*
D38*
X132520000Y-58340000D02*
X132520000Y-54953200D01*
X132520000Y-54953200D02*
X132298400Y-54731600D01*
X106000000Y-67200000D02*
X106000000Y-66172800D01*
X105587800Y-65760600D02*
X106000000Y-66172800D01*
X105587800Y-65760600D02*
X102700000Y-65760600D01*
X106000000Y-67200000D02*
X106150000Y-67350000D01*
X116297200Y-86106000D02*
X116297200Y-84820000D01*
X121818400Y-88519000D02*
X121650000Y-88687400D01*
X121818400Y-84556600D02*
X121818400Y-88519000D01*
X121666000Y-84404200D02*
X121818400Y-84556600D01*
X116713000Y-84404200D02*
X121666000Y-84404200D01*
X116297200Y-84820000D02*
X116713000Y-84404200D01*
X113342400Y-86360000D02*
X116043200Y-86360000D01*
X116043200Y-86360000D02*
X116297200Y-86106000D01*
X113342400Y-86360000D02*
X113342400Y-83974200D01*
X113342400Y-83974200D02*
X113547400Y-83769200D01*
D37*
X132298400Y-54731600D02*
X120243600Y-54731600D01*
X120243600Y-54731600D02*
X100411600Y-54731600D01*
X100177600Y-54889400D02*
X98958400Y-56108600D01*
X98958400Y-56108600D02*
X98958400Y-63042800D01*
X100411600Y-54731600D02*
X100177600Y-54965600D01*
X100177600Y-54965600D02*
X100177600Y-54889400D01*
X125533000Y-60695400D02*
X125558400Y-60720800D01*
D38*
X98958400Y-63042800D02*
X101854000Y-63042800D01*
X101854000Y-63042800D02*
X102700000Y-63888800D01*
X102700000Y-63888800D02*
X102700000Y-65760600D01*
X102700000Y-65760600D02*
X102700000Y-69555000D01*
X93000000Y-65750000D02*
X93000000Y-64429200D01*
X98729800Y-63042800D02*
X98958400Y-63042800D01*
X98907600Y-63042800D02*
X98729800Y-63042800D01*
X98958400Y-63093600D02*
X98907600Y-63042800D01*
X94335600Y-63093600D02*
X98958400Y-63093600D01*
X93000000Y-64429200D02*
X94335600Y-63093600D01*
D37*
X98958400Y-63042800D02*
X98958400Y-63144400D01*
D38*
X129905000Y-89700000D02*
X129905000Y-88020400D01*
X129905000Y-88020400D02*
X129616200Y-87731600D01*
X129616200Y-87731600D02*
X122605800Y-87731600D01*
X122605800Y-87731600D02*
X121650000Y-88687400D01*
X121650000Y-88687400D02*
X121650000Y-93000000D01*
X131000000Y-78850000D02*
X131000000Y-72733400D01*
X131000000Y-72733400D02*
X131533400Y-72200000D01*
X131800000Y-67150000D02*
X131800000Y-71754400D01*
X131800000Y-71754400D02*
X132245600Y-72200000D01*
X125150000Y-72200000D02*
X131533400Y-72200000D01*
X131533400Y-72200000D02*
X132245600Y-72200000D01*
X132245600Y-72200000D02*
X133515600Y-72200000D01*
X134404400Y-73800000D02*
X136850000Y-73800000D01*
X134086600Y-73482200D02*
X134404400Y-73800000D01*
X134086600Y-72771000D02*
X134086600Y-73482200D01*
X133515600Y-72200000D02*
X134086600Y-72771000D01*
X132912800Y-89357200D02*
X132912800Y-86975000D01*
X142798800Y-85293200D02*
X142798800Y-73800000D01*
X142265400Y-85826600D02*
X142798800Y-85293200D01*
X134061200Y-85826600D02*
X134874000Y-85826600D01*
X134874000Y-85826600D02*
X142265400Y-85826600D01*
X132912800Y-86975000D02*
X134061200Y-85826600D01*
X136850000Y-73800000D02*
X142798800Y-73800000D01*
X129905000Y-89700000D02*
X132570000Y-89700000D01*
X132570000Y-89700000D02*
X132912800Y-89357200D01*
D39*
X93000000Y-65750000D02*
X93000000Y-65000000D01*
X118160000Y-73760000D02*
X118160000Y-69810000D01*
X118160000Y-69810000D02*
X118210000Y-69760000D01*
X125130000Y-73750000D02*
X121730000Y-73750000D01*
X113120000Y-72800000D02*
X113120000Y-70740000D01*
X114080000Y-73760000D02*
X113120000Y-72800000D01*
X121720000Y-73760000D02*
X118160000Y-73760000D01*
X118160000Y-73760000D02*
X114080000Y-73760000D01*
X121730000Y-73750000D02*
X121720000Y-73760000D01*
D38*
X118210000Y-71410000D02*
X118210000Y-69760000D01*
D39*
X118160000Y-74550000D02*
X118160000Y-78210000D01*
X118160000Y-78210000D02*
X118210000Y-78260000D01*
X125130000Y-74550000D02*
X118160000Y-74550000D01*
X118160000Y-74550000D02*
X114340000Y-74550000D01*
X113380000Y-75510000D02*
X113380000Y-76980000D01*
X114340000Y-74550000D02*
X113380000Y-75510000D01*
X113380000Y-76980000D02*
X113160000Y-77200000D01*
D40*
X118179060Y-76560000D02*
X118870000Y-77250940D01*
D39*
X98250000Y-67000000D02*
X98250000Y-68605000D01*
X98250000Y-68605000D02*
X97300000Y-69555000D01*
X95750000Y-67000000D02*
X95750000Y-65250000D01*
X99905000Y-72095000D02*
X97300000Y-72095000D01*
X100000000Y-72000000D02*
X99905000Y-72095000D01*
X100000000Y-65000000D02*
X100000000Y-72000000D01*
X96000000Y-65000000D02*
X100000000Y-65000000D01*
X95750000Y-65250000D02*
X96000000Y-65000000D01*
X93000000Y-71750000D02*
X94750000Y-71750000D01*
X95365000Y-73365000D02*
X97300000Y-73365000D01*
X95000000Y-73000000D02*
X95365000Y-73365000D01*
X95000000Y-72000000D02*
X95000000Y-73000000D01*
X94750000Y-71750000D02*
X95000000Y-72000000D01*
X93000000Y-74250000D02*
X94250000Y-74250000D01*
X94635000Y-74635000D02*
X97300000Y-74635000D01*
X94250000Y-74250000D02*
X94635000Y-74635000D01*
X93000000Y-68250000D02*
X94250000Y-68250000D01*
X95825000Y-70825000D02*
X97300000Y-70825000D01*
X95000000Y-70000000D02*
X95825000Y-70825000D01*
X95000000Y-69000000D02*
X95000000Y-70000000D01*
X94250000Y-68250000D02*
X95000000Y-69000000D01*
X93000000Y-77750000D02*
X94250000Y-77750000D01*
X95095000Y-75905000D02*
X97300000Y-75905000D01*
X95000000Y-76000000D02*
X95095000Y-75905000D01*
X95000000Y-77000000D02*
X95000000Y-76000000D01*
X94250000Y-77750000D02*
X95000000Y-77000000D01*
D38*
X135060000Y-58340000D02*
X135060000Y-58710000D01*
X135060000Y-58710000D02*
X135910000Y-59560000D01*
X135910000Y-59560000D02*
X135910000Y-62670000D01*
X123560000Y-75400000D02*
X125150000Y-75400000D01*
X122760000Y-76200000D02*
X123560000Y-75400000D01*
X108315000Y-74635000D02*
X109040000Y-75360000D01*
X102700000Y-74635000D02*
X108315000Y-74635000D01*
X123670000Y-76380000D02*
X123670000Y-76740000D01*
X123670000Y-76380000D02*
X123850000Y-76200000D01*
X125150000Y-76200000D02*
X123850000Y-76200000D01*
X123670000Y-76740000D02*
X122910000Y-77500000D01*
X107285000Y-75905000D02*
X108520000Y-77140000D01*
X107285000Y-75905000D02*
X102700000Y-75905000D01*
X113342400Y-91440000D02*
X111734600Y-91440000D01*
X129905000Y-85893400D02*
X129905000Y-84300000D01*
X129286000Y-86512400D02*
X129905000Y-85893400D01*
X111734600Y-91440000D02*
X111633000Y-91338400D01*
X125150000Y-77000000D02*
X125150000Y-82139400D01*
X129905000Y-82153000D02*
X129905000Y-84300000D01*
X129895600Y-82143600D02*
X129905000Y-82153000D01*
X125150000Y-82139400D02*
X125145800Y-82143600D01*
X126095000Y-84300000D02*
X124894400Y-84300000D01*
X110794800Y-92710000D02*
X113342400Y-92710000D01*
X110718600Y-92633800D02*
X110794800Y-92710000D01*
X124894400Y-84300000D02*
X124891800Y-84302600D01*
D40*
X127000000Y-78850000D02*
X127000000Y-79832200D01*
X126095000Y-80737200D02*
X126095000Y-84300000D01*
X127000000Y-79832200D02*
X126095000Y-80737200D01*
X127365000Y-84300000D02*
X128635000Y-84300000D01*
X127800000Y-78850000D02*
X127800000Y-80505400D01*
X127365000Y-80940400D02*
X127365000Y-84300000D01*
X127800000Y-80505400D02*
X127365000Y-80940400D01*
D38*
X148580000Y-95670000D02*
X150070000Y-95670000D01*
X127650000Y-93000000D02*
X127650000Y-95440000D01*
X127880000Y-95670000D02*
X127650000Y-95440000D01*
X148580000Y-95670000D02*
X127880000Y-95670000D01*
X127650000Y-93000000D02*
X124350000Y-93000000D01*
X127365000Y-89700000D02*
X127365000Y-92715000D01*
X127365000Y-92715000D02*
X127650000Y-93000000D01*
D40*
X127365000Y-92715000D02*
X127650000Y-93000000D01*
D38*
X133650000Y-93000000D02*
X133650000Y-94480000D01*
X133670000Y-94500000D02*
X150240000Y-94500000D01*
X133650000Y-94480000D02*
X133670000Y-94500000D01*
X130350000Y-93000000D02*
X133650000Y-93000000D01*
X128635000Y-89700000D02*
X128635000Y-91265000D01*
X130360000Y-91630000D02*
X130360000Y-92990000D01*
X130230000Y-91500000D02*
X130360000Y-91630000D01*
X128870000Y-91500000D02*
X130230000Y-91500000D01*
X128635000Y-91265000D02*
X128870000Y-91500000D01*
X130360000Y-92990000D02*
X130350000Y-93000000D01*
D40*
X130350000Y-92910400D02*
X130350000Y-93000000D01*
D38*
X102700000Y-72095000D02*
X108385000Y-72095000D01*
X103970000Y-61070000D02*
X103970000Y-58030000D01*
X105880000Y-62980000D02*
X103970000Y-61070000D01*
X108930000Y-62980000D02*
X105880000Y-62980000D01*
X109230000Y-63280000D02*
X108930000Y-62980000D01*
X109230000Y-71250000D02*
X109230000Y-63280000D01*
X108385000Y-72095000D02*
X109230000Y-71250000D01*
D40*
X102795000Y-72000000D02*
X102700000Y-72095000D01*
D38*
X102700000Y-73365000D02*
X109525000Y-73365000D01*
X106510000Y-60630000D02*
X106510000Y-58030000D01*
X107180000Y-61300000D02*
X106510000Y-60630000D01*
X110080000Y-61300000D02*
X107180000Y-61300000D01*
X110810000Y-62030000D02*
X110080000Y-61300000D01*
X110810000Y-72080000D02*
X110810000Y-62030000D01*
X109525000Y-73365000D02*
X110810000Y-72080000D01*
D37*
X172340000Y-62600000D02*
X172340000Y-69340000D01*
X172340000Y-69340000D02*
X171650000Y-70030000D01*
X166470000Y-69680000D02*
X171300000Y-69680000D01*
X171300000Y-69680000D02*
X171650000Y-70030000D01*
X160090000Y-69960000D02*
X166190000Y-69960000D01*
X166190000Y-69960000D02*
X166470000Y-69680000D01*
X161350000Y-73230000D02*
X161080000Y-72960000D01*
X161080000Y-72960000D02*
X158040000Y-72960000D01*
X158040000Y-72960000D02*
X157290000Y-72210000D01*
X157290000Y-72210000D02*
X157290000Y-69960000D01*
D39*
X105165400Y-86436200D02*
X107866200Y-86436200D01*
X107866200Y-86436200D02*
X107942400Y-86360000D01*
X103165400Y-86436200D02*
X103165400Y-87417400D01*
X106578400Y-88900000D02*
X107942400Y-88900000D01*
X106502200Y-88823800D02*
X106578400Y-88900000D01*
X106502200Y-88138000D02*
X106502200Y-88823800D01*
X106299000Y-87934800D02*
X106502200Y-88138000D01*
X103682800Y-87934800D02*
X106299000Y-87934800D01*
X103165400Y-87417400D02*
X103682800Y-87934800D01*
X105216200Y-89230200D02*
X105216200Y-89366600D01*
X105216200Y-89366600D02*
X106019600Y-90170000D01*
X106019600Y-90170000D02*
X107942400Y-90170000D01*
X103216200Y-89230200D02*
X103216200Y-90585800D01*
X106324400Y-91389200D02*
X107891600Y-91389200D01*
X105638600Y-90703400D02*
X106324400Y-91389200D01*
X103333800Y-90703400D02*
X105638600Y-90703400D01*
X103216200Y-90585800D02*
X103333800Y-90703400D01*
X107891600Y-91389200D02*
X107942400Y-91440000D01*
X107942400Y-87630000D02*
X109347000Y-87630000D01*
X110312200Y-83769200D02*
X111547400Y-83769200D01*
X109880400Y-84201000D02*
X110312200Y-83769200D01*
X109880400Y-87096600D02*
X109880400Y-84201000D01*
X109347000Y-87630000D02*
X109880400Y-87096600D01*
X105140000Y-92252800D02*
X105156000Y-92252800D01*
X105156000Y-92252800D02*
X105613200Y-92710000D01*
X105613200Y-92710000D02*
X107942400Y-92710000D01*
D38*
X117449600Y-89306400D02*
X116103400Y-89306400D01*
X115697000Y-88900000D02*
X113342400Y-88900000D01*
X116103400Y-89306400D02*
X115697000Y-88900000D01*
X117449600Y-91846400D02*
X115925600Y-91846400D01*
X115239800Y-90170000D02*
X113342400Y-90170000D01*
X115443000Y-90373200D02*
X115239800Y-90170000D01*
X115443000Y-91363800D02*
X115443000Y-90373200D01*
X115925600Y-91846400D02*
X115443000Y-91363800D01*
X123330000Y-66390000D02*
X116840000Y-66390000D01*
X116660000Y-66210000D02*
X116660000Y-63900000D01*
X116840000Y-66390000D02*
X116660000Y-66210000D01*
X123330000Y-63890000D02*
X123330000Y-66390000D01*
X123860000Y-71350000D02*
X125130000Y-71350000D01*
X123330000Y-70820000D02*
X123860000Y-71350000D01*
X123330000Y-66390000D02*
X123330000Y-70820000D01*
X117370000Y-60770000D02*
X117370000Y-63190000D01*
X117370000Y-63190000D02*
X116660000Y-63900000D01*
D40*
X125074400Y-71475600D02*
X125150000Y-71400000D01*
D38*
X127440000Y-69000000D02*
X125150000Y-69000000D01*
X127450000Y-69010000D02*
X127440000Y-69000000D01*
X141310000Y-66220000D02*
X139480000Y-66220000D01*
X143000000Y-64530000D02*
X141310000Y-66220000D01*
X143000000Y-62230000D02*
X143000000Y-64530000D01*
X153160000Y-63710000D02*
X153160000Y-62230000D01*
X152900000Y-63970000D02*
X153160000Y-63710000D01*
X149620000Y-63970000D02*
X152900000Y-63970000D01*
X149540000Y-64050000D02*
X149620000Y-63970000D01*
X128690000Y-69800000D02*
X128710000Y-69820000D01*
X125150000Y-69800000D02*
X128690000Y-69800000D01*
X127420000Y-70600000D02*
X125150000Y-70600000D01*
X127450000Y-70630000D02*
X127420000Y-70600000D01*
X132600000Y-63870000D02*
X132600000Y-67150000D01*
X133210000Y-62670000D02*
X133210000Y-63260000D01*
X133210000Y-63260000D02*
X132600000Y-63870000D01*
X136830000Y-71350000D02*
X143730000Y-71350000D01*
X143730000Y-71350000D02*
X144100000Y-70980000D01*
M02*
