M48
;DRILL file {KiCad 4.0.6} date 08/10/17 23:44:19
;FORMAT={-:-/ absolute / inch / decimal}
FMAT,2
INCH,TZ
T1C0.016
T2C0.039
T3C0.040
T4C0.040
T5C0.070
T6C0.130
%
G90
G05
M72
T1
X3.7402Y-3.1693
X3.9764Y-2.7756
X3.994Y-3.634
X4.2724Y-3.037
X4.2929Y-2.9669
X4.359Y-3.647
X4.3701Y-3.1496
X4.395Y-3.596
X4.4488Y-2.5984
X4.524Y-3.45
X4.716Y-3.389
X4.8031Y-2.4803
X4.8331Y-3.
X4.839Y-3.0512
X4.8425Y-2.874
X4.8555Y-2.5154
X4.9016Y-3.5236
X4.917Y-3.319
X4.927Y-3.234
X5.0177Y-2.7169
X5.0177Y-2.7807
X5.0673Y-2.7488
X5.09Y-3.406
X5.114Y-3.234
X5.1181Y-2.4016
X5.1575Y-2.5591
X5.1969Y-3.189
X5.3937Y-3.5236
X5.4528Y-3.6614
X5.4913Y-2.6071
X5.4921Y-2.874
X5.8874Y-2.5217
X5.9083Y-3.7665
X5.915Y-3.7205
X5.9957Y-2.7945
X6.3524Y-2.8831
X6.378Y-2.126
X6.9685Y-2.5984
T2
X4.624Y-3.516
X4.624Y-3.616
X4.624Y-3.716
X6.5539Y-2.5433
X6.5539Y-2.6433
X6.5539Y-2.7433
T3
X4.0933Y-2.2846
X4.1933Y-2.2846
X4.2933Y-2.2846
X5.6299Y-2.35
X5.6299Y-2.45
X5.7299Y-2.35
X5.7299Y-2.45
X5.8299Y-2.35
X5.8299Y-2.45
X5.9299Y-2.35
X5.9299Y-2.45
X6.0299Y-2.35
X6.0299Y-2.45
T4
X6.1697Y-2.9843
X6.2094Y-3.2744
X6.2346Y-3.1744
X6.2697Y-2.9843
X6.3098Y-3.2744
X6.3346Y-3.1744
X6.4098Y-3.2744
X6.4346Y-3.1744
X6.4996Y-2.9843
X6.5094Y-3.2744
X6.5346Y-3.1744
X6.5996Y-2.9843
T5
X6.0795Y-3.4043
X6.6898Y-3.4043
T6
X6.1594Y-3.5244
X6.6098Y-3.5244
T0
M30
