M48
;DRILL file {KiCad 4.0.6} date 06/13/17 21:31:03
;FORMAT={-:-/ absolute / metric / decimal}
FMAT,2
METRIC,TZ
T1C0.400
T2C0.899
T3C1.000
T4C1.001
T5C1.016
T6C1.199
T7C1.400
%
G90
G05
M71
T1
X95.Y-80.5
X101.Y-70.5
X101.448Y-92.304
X107.264Y-75.946
X107.544Y-74.778
X110.719Y-92.634
X111.Y-81.5
X111.633Y-91.338
X113.5Y-71.
X114.Y-68.
X114.91Y-87.63
X119.786Y-86.081
X123.Y-73.
X123.165Y-76.987
X123.546Y-75.413
X124.5Y-89.5
X124.892Y-84.303
X125.146Y-82.144
X129.286Y-86.512
X129.896Y-82.144
X130.Y-62.5
X131.Y-65.
X132.Y-81.
X137.Y-89.5
X138.5Y-93.
X139.5Y-73.
X148.895Y-61.62
X160.782Y-59.03
X163.398Y-58.344
X178.079Y-64.973
T2
X157.11Y-75.555
X157.11Y-78.095
X157.11Y-80.635
X157.11Y-83.175
X159.65Y-76.825
X159.65Y-79.365
X159.65Y-81.905
X159.65Y-84.445
T3
X117.45Y-89.306
X117.45Y-91.846
X117.45Y-94.386
X170.332Y-63.373
X170.332Y-65.913
X170.332Y-68.453
T4
X133.502Y-58.877
X136.042Y-58.877
T5
X108.407Y-62.408
X110.947Y-62.408
X113.487Y-62.408
T6
X119.Y-74.559
X119.Y-79.441
T7
X147.142Y-78.486
X152.222Y-78.486
T0
M30
